# xmcd
#
# Track frame offsets: 
#        150
#        13660
#        29490
#        48922
#        68995
#        85477
#        102552
#        118975
#        137287
#        155315
#        186352
#
# Disc length: 2660 seconds
#
# Revision: 0
# Processed by: cddbd v1.5.2PL0 Copyright (c) Steve Scherf et al.
# Submitted via: ExactAudioCopy v1.0b3
#
DISCID=960a620b
DTITLE=Lyzanxia - Eden
DYEAR=2001
DGENRE=Metal
TTITLE0=Dream Feeder
TTITLE1=Addicted
TTITLE2=Lost
TTITLE3=Medecine Slave
TTITLE4=Bewitched
TTITLE5=Labyrinth
TTITLE6=Terrible Old Man
TTITLE7=Positronic
TTITLE8=Eden
TTITLE9=Dome
TTITLE10=Cured
EXTD=
EXTT0=
EXTT1=
EXTT2=
EXTT3=
EXTT4=
EXTT5=
EXTT6=
EXTT7=
EXTT8=
EXTT9=
EXTT10=
PLAYORDER=
